<?xml version="1.0" encoding="UTF-8"?>
<svg id="_Слой_1" data-name="Слой 1" xmlns="http://www.w3.org/2000/svg" viewBox="0 0 100 99.99">
  <g id="SvgjsG1246">
    <g id="SvgjsG1247">
      <g>
        <path d="M99.2,0c-.31,.01-.58,.21-.68,.51-.02-.04,0-.08-.04-.12-.22-.24-.57-.31-.87-.17-.9-.19-1.83,.03-2.54,.61l-.29,.18-.18,.1c-.41,.07-.81,.12-1.16,.16-.28,.03-.55,.07-.77,.1-1.39,.21-2.78,.37-4.18,.52-1.22,.14-2.43,.27-3.65,.45-4.93,.62-9.82,1.51-14.66,2.68-8.67,2.07-17.44,3.64-26.28,4.73-2.27,.32-4.53,.64-6.8,.98-2.48,.37-4.97,.66-7.45,.96-4.84,.48-9.66,1.23-14.42,2.25-1.22,.29-2.45,.61-3.69,.94-3.5,1.07-7.11,1.73-10.76,1.97-.44,0-.8,.38-.79,.83,0,.31,.19,.6,.47,.73,1.05,.56,1.84,1.52,2.19,2.67,.18,.94,.48,1.85,.89,2.71,.54,.98,1.24,1.87,2.07,2.62l.2,.2c.35,.36,.71,.74,1.06,1.12,.86,.97,1.79,1.86,2.79,2.68,1.72,1.33,3.54,2.48,5.31,3.6,1.9,1.15,3.74,2.41,5.51,3.76,.68,.54,1.38,1.07,2.08,1.6,1.71,1.25,3.35,2.6,4.91,4.05,.21,.23,.4,.47,.57,.73,.19,.27,.4,.54,.6,.79-.03,.05-.08,.07-.1,.12-.14,.43,.09,.89,.51,1.03,1.87,.63,1.59,4.92,1.45,7.23-.04,.49-.06,.98-.07,1.48v7.86c0,.37-.02,.77-.05,1.17-.1,1.02-.06,2.05,.12,3.06,.07,.3,.31,.54,.62,.6,.09,.02,.19,.03,.28,.03,1.07,0,2.02-1.32,3.04-2.91,.13-.2,.27-.4,.41-.6,.79-1.02,1.57-2.06,2.33-3.11,.13-.19,.23-.39,.3-.61,.03-.08,.06-.15,.1-.23,.06-.08,.13-.15,.2-.21,.14-.13,.26-.27,.37-.43,.21-.32,.41-.65,.57-.99,.12-.24,.25-.48,.4-.7,.87-1.25,1.88-2.39,3-3.4,.19,.23,.4,.45,.62,.66,.15,.14,.3,.28,.48,.48,.63,.83,1.37,1.57,2.19,2.21,1.93,1.43,3.97,2.7,6.1,3.81l.55,.31c.77,.44,1.56,.84,2.37,1.2,.66,.3,1.32,.6,1.93,.95,1.36,.82,2.69,1.47,4.1,2.16l.42,.2c1.3,.7,2.53,1.53,3.66,2.48l.21,.17c.34,.23,.64,.52,.86,.87,.09,.25,.14,.51,.14,.78,.01,.24,.04,.49,.1,.73,.03,.18,.07,.36,.12,.53,.04,.11,.07,.24,.06,.36-.04,.4,.2,.77,.59,.87,.38,.11,.78-.08,.95-.45,.11-.21,.24-.42,.4-.6,.19-.25,.36-.51,.51-.78,.14-.29,.28-.6,.43-.91,.13-.3,.27-.59,.41-.88l.62-1.38c.6-1.34,1.22-2.72,1.91-4.02,.36-.72,.73-1.44,1.09-2.16,.71-1.4,1.46-2.85,2.12-4.34,.25-.62,.54-1.23,.84-1.85,.3-.64,.61-1.29,.87-1.93,.21-.52,.4-1.04,.58-1.57,.26-.82,.58-1.61,.96-2.37,.23-.44,.46-.87,.7-1.3,.66-1.16,1.25-2.35,1.78-3.57,.32-.74,.69-1.44,1.06-2.15,.53-.96,1-1.95,1.4-2.97,1.69-4.36,3.48-8.68,5.35-12.96,.73-1.71,1.43-3.43,2.13-5.15,1.56-3.82,3.17-7.77,5.02-11.54,.35-.73,.72-1.46,1.09-2.19,.6-1.18,1.2-2.36,1.73-3.57,.1-.22,.23-.46,.38-.72,.57-.87,.93-1.86,1.04-2.9C100,.36,99.64,0,99.2,0h0ZM23.53,38.05c-.69-.52-1.37-1.04-2.05-1.58-1.81-1.39-3.7-2.68-5.65-3.86-1.74-1.1-3.53-2.23-5.19-3.51-.93-.76-1.79-1.6-2.59-2.5-.36-.39-.73-.78-1.1-1.15l-.2-.2c-.7-.63-1.3-1.38-1.76-2.21-.36-.77-.63-1.59-.78-2.43-.23-.85-.66-1.63-1.25-2.28,3.04-.4,6.05-1.03,8.99-1.88,1.22-.32,2.44-.64,3.65-.93,4.7-1.01,9.45-1.75,14.23-2.22,2.5-.29,5-.59,7.5-.96,2.27-.34,4.53-.66,6.79-.98,8.9-1.09,17.73-2.68,26.45-4.76,4.78-1.15,9.61-2.03,14.49-2.64,1.2-.17,2.4-.31,3.6-.44,.87-.1,1.73-.2,2.59-.31-.88,.58-1.77,1.14-2.67,1.69-2.02,1.21-3.99,2.52-5.91,3.81-.03-.12-.12-.21-.24-.26l-.33-.11c-1.37-.46-2.74-.92-4.1-1.41-.38-.14-.78-.25-1.16-.36-.35-.09-.7-.19-1.04-.31-.21-.07-.44,.04-.51,.25s.04,.45,.25,.52h0c.35,.12,.72,.23,1.09,.33,.37,.1,.74,.2,1.1,.33,1.37,.49,2.74,.96,4.12,1.42l.14,.05c-1.59,1.07-3.18,2.14-4.81,3.16-.04-.1-.12-.18-.23-.22-.5-.19-.99-.39-1.48-.59-2.17-1.02-4.49-1.67-6.88-1.92h-.02c-.22,0-.41,.18-.41,.4,0,.22,.17,.41,.4,.41,2.29,.25,4.52,.87,6.61,1.86,.44,.18,.88,.35,1.32,.52-.65,.42-1.27,.85-1.9,1.29-.02-.02-.03-.05-.05-.06-1.56-.73-3.18-1.31-4.85-1.74l-.54-.16c-.55-.17-1.12-.31-1.69-.4l-.24-.03c-.2,0-.4-.05-.59-.13-.19-.12-.43-.06-.55,.13,0,0,0,0,0,0-.12,.19-.06,.44,.13,.56,.29,.15,.6,.24,.93,.25l.21,.02c.54,.09,1.06,.22,1.58,.38l.55,.16c1.49,.39,2.95,.91,4.35,1.54-.43,.3-.89,.6-1.32,.89-1.39,.99-2.8,1.94-4.23,2.86-.03-.03-.04-.08-.08-.1l-.98-.53c-1.16-.67-2.37-1.25-3.62-1.73-.62-.22-1.25-.44-1.88-.64l-.14-.05c-.32-.14-.66-.19-1-.16-.22,.05-.36,.26-.31,.48,.04,.21,.24,.35,.45,.32,.21,0,.41,.04,.6,.13l.16,.05c.62,.2,1.24,.41,1.85,.63,1.21,.47,2.38,1.03,3.51,1.68l.67,.36c-.76,.47-1.51,.92-2.29,1.33,.03-.19-.07-.37-.24-.44-1.3-.47-2.61-.92-3.91-1.37-.87-.3-1.74-.6-2.62-.91-.2-.07-.39-.15-.58-.23-.58-.3-1.22-.45-1.87-.44-.22,0-.4,.2-.39,.42,0,.22,.19,.4,.42,.39h.03c.52,0,1.03,.14,1.5,.37,.2,.08,.41,.17,.62,.25l2.62,.91c1.29,.45,2.58,.89,3.87,1.35l-1.78,.87c-.56,.27-1.13,.56-1.69,.84,.1-.04,.22-.07,.26-.19,.08-.21-.03-.44-.23-.52,0,0,0,0,0,0-1.86-.73-3.79-1.3-5.75-1.69l-.66-.13c-.93-.22-1.87-.35-2.82-.4h0c-.22,0-.4,.18-.41,.4,0,.22,.18,.41,.4,.41,.9,.04,1.79,.17,2.67,.38l.67,.13c1.92,.39,3.8,.94,5.63,1.66,.03,.01,.07,.02,.1,.02-1.15,.57-2.29,1.18-3.43,1.84-.04-.06-.09-.11-.15-.14l-1.25-.46c-3.51-1.4-7.12-2.52-10.8-3.36-.21-.05-.42,.09-.47,.31,0,0,0,0,0,.01-.04,.22,.1,.43,.32,.47,3.64,.82,7.21,1.93,10.68,3.32l.83,.31c-.92,.56-1.8,1.17-2.68,1.79l-.02-.03c-1.54-.94-3.15-1.78-4.8-2.51-1.06-.53-2.22-.84-3.41-.9-.24-.02-.46,.16-.48,.4,0,0,0,0,0,.01,0,.21,.15,.39,.36,.4,.02,0,.03,0,.05,0,1.1,.05,2.18,.34,3.17,.84,1.51,.66,2.98,1.43,4.4,2.29-.76,.53-1.52,1.05-2.3,1.55l-.43,.27c.06-.17,0-.36-.15-.46l-.6-.36c-1.09-.71-2.24-1.31-3.45-1.8-.13-.05-.26-.11-.39-.17-.34-.19-.7-.3-1.08-.35-.22,0-.41,.16-.42,.39,0,.23,.16,.42,.39,.43,.27,.05,.53,.14,.78,.27,.16,.07,.31,.15,.46,.2,1.15,.47,2.26,1.05,3.31,1.73l.61,.37s.08,.03,.12,.03c-.41,.26-.82,.52-1.24,.77-1.22,.76-2.45,1.53-3.68,2.34-1.96-1.09-4.01-2.02-6.11-2.79l-.72-.28c-2.6-1.01-5.14-2.15-7.62-3.42-.2-.1-.44-.02-.54,.18s-.02,.45,.18,.55h0c2.5,1.27,5.09,2.44,7.7,3.45l.72,.28c1.95,.72,3.84,1.58,5.67,2.57-.95,.65-1.9,1.32-2.81,2.06-.35-.32-.73-.62-1.13-.89-.62-.45-1.26-.86-1.93-1.23-.15-.08-.3-.18-.45-.27-.35-.24-.72-.43-1.12-.59-.21-.07-.44,.04-.51,.26-.07,.21,.04,.45,.25,.52,.33,.13,.65,.3,.95,.5,.16,.1,.32,.2,.48,.29,.66,.36,1.29,.77,1.9,1.22,.32,.22,.64,.46,.94,.72-.61,.53-1.22,1.06-1.81,1.61l-.13,.11c-.58-.43-1.18-.85-1.79-1.24-.32-.2-.65-.41-.98-.63-.07-.05-.14-.1-.21-.15-.35-.31-.78-.52-1.23-.6-.22,0-.39,.17-.42,.38-.01,.22,.16,.42,.38,.43,0,0,0,0,0,0,.3,.09,.57,.24,.8,.44l.24,.17c.33,.22,.66,.43,1,.64,.55,.36,1.07,.72,1.59,1.1-.46,.42-.91,.84-1.39,1.23l-.77-.41c-.68-.38-1.37-.75-2.07-1.1-.17-.09-.33-.19-.5-.29-.52-.39-1.14-.63-1.79-.69-.22,0-.4,.19-.39,.42,0,.22,.19,.4,.41,.4h.05c.47,.09,.92,.28,1.3,.57,.2,.12,.39,.24,.56,.33,.69,.35,1.36,.72,2.04,1.09,.17,.1,.34,.19,.51,.28-.23,.21-.47,.41-.69,.63-.36,.37-.75,.71-1.16,1.02-.19,.14-.4,.27-.6,.4l-.02,.02c-.73-.6-1.47-1.19-2.22-1.76-.93-.71-1.89-1.43-2.78-2.21-.15-.13-.31-.3-.49-.48-.53-.68-1.26-1.17-2.08-1.41-.22-.03-.42,.12-.45,.33,0,0,0,0,0,.01-.03,.22,.12,.43,.34,.46,.64,.24,1.19,.65,1.62,1.19,.19,.19,.37,.37,.53,.52,.91,.8,1.88,1.54,2.82,2.25,.68,.51,1.36,1.06,2.03,1.61-.18,.12-.36,.25-.52,.39l-.35,.34c-.46,.5-1,.93-1.58,1.28-.12,.07-.23,.15-.34,.23-.08,.06-.22,.16-.33,.22-.33-.34-.63-.71-.9-1.11-.23-.33-.48-.65-.75-.94-1.6-1.49-3.29-2.89-5.06-4.18h0Zm14.25,18.75c-.18,.28-.34,.56-.48,.86-.14,.28-.29,.55-.46,.8-.06,.08-.13,.15-.2,.22-.15,.14-.28,.3-.4,.47-.11,.17-.19,.36-.26,.55-.03,.07-.06,.15-.09,.22-.73,1.01-1.51,2.04-2.3,3.07-.12,.15-.28,.41-.48,.71-.22,.34-.74,1.14-1.15,1.67,0-.49,0-.99,.04-1.48,.02-.43,.05-.86,.05-1.26v-7.86c0-.35,.03-.82,.06-1.37,.45-2.63,.08-5.33-1.05-7.73,.15-.09,.3-.18,.44-.28,.08-.06,.15-.11,.2-.14,.71-.42,1.36-.93,1.92-1.54l.34-.33c.3-.27,.62-.5,.97-.7,.23-.15,.46-.29,.68-.46,.47-.36,.92-.75,1.33-1.17,.31-.3,.62-.6,.96-.87,.87-.7,1.69-1.45,2.5-2.21,.72-.67,1.44-1.33,2.2-1.96,2.29-1.8,4.68-3.44,7.18-4.92,.71-.44,1.42-.88,2.13-1.34,.88-.56,1.75-1.16,2.61-1.76,1.02-.71,2.05-1.42,3.12-2.07,1.93-1.18,3.89-2.13,5.96-3.14l1.81-.88c2.81-1.48,5.5-3.17,8.05-5.07,1.48-1.07,2.99-2.09,4.53-3.08,1.69-1.06,3.34-2.18,4.99-3.28,2.09-1.4,4.24-2.86,6.44-4.17,.98-.59,1.95-1.22,2.92-1.84l.19-.12c-.8,.71-1.54,1.47-2.23,2.29-.64,.72-1.35,1.38-2.11,1.97-.48,.4-.97,.8-1.44,1.24-2.51,2.34-4.89,4.82-7.13,7.43-1.43,1.63-2.9,3.32-4.51,4.83-1.07,1.01-2.06,2.09-3.02,3.13-1.38,1.59-2.89,3.06-4.51,4.4-1.16,.91-2.25,1.91-3.31,2.87-.7,.63-1.4,1.27-2.12,1.89-1.02,.87-2.13,1.67-3.2,2.45-1.02,.74-2.04,1.48-3.01,2.29-2.25,1.86-4.31,3.95-6.31,5.97-1.4,1.41-2.84,2.87-4.32,4.23-.62,.57-1.27,1.13-1.92,1.7-2.12,1.67-4,3.61-5.6,5.79h0ZM97.12,3.75c-.53,1.19-1.12,2.35-1.71,3.51-.37,.73-.74,1.47-1.1,2.21-.51,1.05-.98,2.13-1.46,3.2-1.15,.43-2.28,.94-3.36,1.52-.2,.1-.27,.35-.17,.55,.07,.14,.21,.22,.36,.22,.06,0,.13-.02,.19-.05,.9-.48,1.72-.85,2.5-1.18-.42,.96-.85,1.91-1.26,2.87-.03,0-.06-.02-.1,0-1.7,.43-3.36,.99-4.97,1.67-.2,.09-.3,.33-.21,.53,.06,.15,.21,.25,.37,.25,.06,0,.12-.01,.17-.04,1.41-.6,2.87-1.1,4.36-1.49l-.62,1.49c-.76,.14-1.51,.35-2.24,.62-.36,.13-.73,.26-1.1,.37l-.77,.21c-1.04,.21-2.03,.62-2.92,1.21-.18,.13-.22,.39-.08,.57,.13,.18,.38,.22,.56,.08,.81-.52,1.71-.88,2.65-1.07,.27-.07,.53-.15,.79-.23,.38-.11,.75-.24,1.14-.38,.52-.19,1.06-.35,1.6-.49-.16,.4-.33,.8-.5,1.19l-.29,.71c-.46,.11-.92,.26-1.35,.46l-.48,.2c-1.28,.46-2.6,.81-3.94,1.02-.64,.12-1.27,.23-1.91,.33l-1.26,.21s-.11,.01-.19,.02c-.39,.03-.86,.07-1.07,.4-.13,.19-.09,.45,.09,.59,.07,.05,.15,.08,.23,.08,.12,0,.24-.06,.3-.16,.17-.05,.34-.08,.51-.09,.09,0,.17-.02,.26-.03l1.25-.21c.64-.1,1.29-.21,1.93-.33,1.39-.23,2.75-.58,4.07-1.06,.17-.07,.34-.14,.51-.21,.22-.09,.43-.18,.65-.26l-1.04,2.5c-.35,.08-.7,.18-1.04,.3-.18,.07-.35,.14-.54,.2-.69,.21-1.4,.38-2.11,.5l-.62,.12c-.65,.13-1.31,.22-1.98,.32l-.49,.07c-.18,.03-.36,.07-.54,.12-.18,.06-.37,.1-.57,.11-.22,0-.4,.19-.39,.42s.19,.4,.41,.4h.02c.25-.02,.49-.07,.73-.14,.15-.04,.3-.08,.45-.1l.49-.07c.68-.1,1.35-.19,2.02-.33l.61-.11c.75-.12,1.49-.3,2.22-.53,.19-.07,.39-.14,.57-.21,.12-.05,.23-.06,.35-.1v.03s-.94,2.2-.94,2.2c-.39,.1-.76,.25-1.11,.44h0c-.8,.33-1.6,.68-2.39,1.02-1.21,.53-2.27,.96-3.25,1.31-.21,.06-.34,.29-.27,.5,.06,.22,.29,.34,.5,.28,.02,0,.03,0,.04-.02,.99-.36,2.07-.79,3.3-1.33,.79-.34,1.58-.69,2.37-1.01l.05-.03,.03-.02,.31-.14c-.51,1.2-1.01,2.39-1.52,3.61-.47,.05-.92,.19-1.34,.4-.73,.36-1.48,.66-2.25,.91-.26,.09-.53,.18-.79,.26-.95,.28-1.88,.64-2.78,1.06-.2,.1-.28,.34-.19,.54,.1,.2,.34,.29,.54,.19,0,0,0,0,0,0,.86-.41,1.76-.75,2.67-1.02l.8-.26c.8-.26,1.59-.58,2.35-.96,.19-.08,.39-.14,.6-.18-.42,1.04-.84,2.08-1.26,3.13-.27,.13-.53,.26-.8,.4l-.21,.1c-1.01,.55-2.07,1-3.17,1.34-.65,.2-1.33,.35-2,.49-.77,.16-1.53,.35-2.28,.58-.21,.07-.33,.3-.26,.51,.05,.17,.21,.28,.38,.28,.04,0,.08,0,.12-.02,.72-.23,1.48-.4,2.21-.56,.68-.15,1.37-.3,2.05-.51,1.14-.36,2.25-.82,3.31-1.39l.18-.1c-.13,.33-.27,.66-.4,1-.14,.4-.32,.78-.5,1.16-.51,.17-1.01,.4-1.49,.66-.22,.12-.44,.23-.66,.34-.96,.49-1.96,.87-3,1.15-.35,.09-.71,.16-1.07,.24-.61,.12-1.22,.27-1.81,.46l-.23,.07c-.46,.09-.88,.31-1.23,.63-.16,.15-.17,.41-.02,.57s.41,.17,.57,.02c.02-.01,.03-.03,.04-.05,.25-.19,.55-.33,.86-.39l.24-.07c.57-.18,1.15-.32,1.74-.43,.37-.08,.74-.16,1.1-.25,1.09-.29,2.14-.69,3.15-1.2,.24-.12,.47-.24,.69-.36,.18-.1,.37-.15,.54-.23l-.24,.47c-.4,.75-.79,1.5-1.12,2.28-.1,.24-.23,.48-.33,.72-.03,0-.06,0-.09,.01l-.5,.29c-.68,.42-1.39,.79-2.12,1.11-.96,.37-1.95,.66-2.95,.89l-.59,.14c-.63,.14-1.26,.3-1.87,.5-.27,.09-.54,.17-.82,.24-.22,.05-.35,.27-.31,.49,.04,.19,.21,.32,.4,.32,.03,0,.06,0,.1,0,.3-.07,.59-.17,.88-.26,.18-.06,.36-.12,.54-.17,.41-.12,.84-.21,1.26-.31l.6-.14c1.04-.23,2.06-.54,3.06-.93,.63-.28,1.24-.59,1.83-.95-.26,.51-.53,1.01-.8,1.5-.24,.44-.48,.88-.71,1.32-.1,.18-.16,.37-.25,.55-.5,.19-1,.39-1.48,.62-.26,.12-.51,.24-.77,.36-.98,.41-1.99,.76-3.01,1.02l-.51,.14c-.74,.18-1.47,.41-2.17,.7l-.19,.08c-.35,.12-.68,.3-.97,.54-.16,.15-.17,.41-.02,.57h0c.08,.08,.18,.13,.29,.13,.1,0,.2-.04,.28-.11,.22-.17,.46-.3,.71-.38l.21-.09c.67-.27,1.36-.49,2.06-.66l.51-.14c1.06-.28,2.1-.64,3.12-1.06,.27-.12,.53-.24,.79-.37,.23-.11,.46-.19,.69-.29l-.35,.98c-.17,.5-.35,1-.55,1.5-.04,.09-.09,.19-.13,.28-.76,.18-1.52,.41-2.25,.69-.38,.14-.76,.28-1.15,.4-.57,.18-1.16,.35-1.73,.51-.75,.21-1.5,.42-2.23,.68-.21,.07-.32,.31-.25,.52,.06,.16,.21,.27,.38,.27,.04,0,.09,0,.13-.02,.72-.25,1.46-.46,2.19-.66,.59-.17,1.17-.33,1.76-.52,.4-.13,.79-.27,1.18-.41,.52-.19,1.04-.36,1.55-.51-.1,.2-.18,.41-.28,.62-.13,.27-.24,.54-.37,.81-.08-.03-.18-.02-.26,0-.49,.22-.97,.47-1.44,.74l-.37,.2c-.95,.51-1.94,.93-2.97,1.24-.36,.11-.74,.21-1.1,.31-.67,.17-1.34,.38-1.99,.62-.21,.08-.31,.32-.22,.53,.06,.15,.21,.25,.37,.26,.05,0,.1,0,.14-.02,.63-.23,1.27-.43,1.91-.6,.38-.1,.75-.2,1.13-.32,1.08-.33,2.12-.77,3.11-1.3l.38-.21c.29-.16,.57-.29,.86-.44l-.03,.07c-.57,1.3-1.23,2.58-1.88,3.84-.09-.07-.2-.1-.31-.08-.98,.23-1.93,.57-2.84,1.01-.46,.2-.91,.41-1.38,.58-.99,.36-1.96,.79-2.91,1.27-.2,.1-.28,.34-.18,.54,.07,.14,.21,.23,.37,.23,.06,0,.13-.01,.18-.05,.91-.47,1.86-.88,2.82-1.23,.48-.18,.96-.39,1.42-.6,.79-.37,1.6-.67,2.44-.88-.3,.6-.61,1.19-.89,1.77-.18,.33-.32,.68-.49,1.02-.49,.12-.97,.29-1.43,.51l-.23,.1c-.44,.2-.91,.33-1.38,.4-.22,.03-.38,.23-.35,.45,.03,.2,.2,.36,.4,.36h.05c.55-.08,1.08-.23,1.59-.46l.23-.1c.23-.1,.43-.19,.64-.27-.33,.7-.68,1.39-.99,2.09l-.6,1.35c-.14,.29-.28,.6-.43,.91l-.14,.3c-.04-.31-.13-.61-.26-.88-.33-.57-.78-1.05-1.32-1.42l-.19-.15c-1.22-1.02-2.55-1.92-3.95-2.67l-.44-.22c-1.37-.67-2.67-1.3-3.99-2.09-.68-.37-1.37-.72-2.08-1.03-.76-.33-1.51-.7-2.23-1.12l-.58-.32c-2.06-1.07-4.03-2.3-5.9-3.68-.76-.59-1.43-1.28-2.01-2.04-.17-.18-.35-.36-.53-.53-.19-.18-.36-.37-.52-.58,.37-.33,.73-.64,1.1-.96,.66-.58,1.32-1.15,1.96-1.73,1.51-1.38,2.97-2.86,4.38-4.29,1.97-1.99,4.01-4.05,6.19-5.86,.95-.79,1.94-1.51,2.93-2.22,1.1-.8,2.23-1.62,3.3-2.53,.73-.62,1.45-1.27,2.16-1.92,1.04-.94,2.12-1.92,3.23-2.79,1.68-1.4,3.25-2.93,4.69-4.58,.94-1.02,1.91-2.07,2.94-3.05,1.65-1.56,3.15-3.28,4.61-4.94,2.21-2.56,4.55-5.01,7.02-7.31,.44-.42,.9-.79,1.35-1.16,.85-.65,1.63-1.38,2.33-2.19,1.38-1.56,2.91-2.98,4.58-4.23,.68-.55,1.36-1.11,2.03-1.68-.16,.39-.38,.8-.58,1.17-.15,.27-.29,.54-.42,.81h0ZM7.83,78.85c4.73-5.79,9.27-11.73,13.88-17.83,.27-.36,.2-.87-.15-1.14-.35-.27-.86-.21-1.13,.15-4.61,6.08-9.13,12.02-13.84,17.79-.28,.35-.23,.86,.11,1.14,.34,.29,.84,.24,1.13-.1,0,0,0,0,0,0h0Zm15.49-5.81c-.34-.28-.85-.24-1.14,.11-3.54,4.35-7.05,8.85-10.44,13.39-1.25,1.72-2.51,3.43-3.77,5.14-1.78,2.37-3.6,4.71-5.44,7.03-.26,.36-.18,.87,.18,1.14,.34,.25,.8,.19,1.08-.12,1.86-2.33,3.68-4.69,5.47-7.07,1.27-1.71,2.52-3.43,3.77-5.14,3.37-4.51,6.84-8.96,10.39-13.32,.28-.35,.24-.86-.11-1.14,0,0,0,0,0,0h0Zm14.75-1.79c-3.02,3.68-6.13,7.48-9.38,11.07-1.19,1.31-2.39,2.6-3.6,3.9-1.5,1.61-3.01,3.22-4.47,4.87-.32,.32-.32,.83,0,1.15,.31,.32,.82,.32,1.14,0,.02-.02,.04-.04,.06-.07,1.46-1.64,2.95-3.24,4.45-4.83,1.21-1.3,2.43-2.6,3.62-3.92,3.28-3.62,6.4-7.44,9.43-11.13,.3-.33,.28-.84-.04-1.15-.33-.31-.83-.29-1.14,.04-.02,.02-.04,.05-.06,.07h0Z" style="fill: #487ef4;"/>
        <path d="M72.41,8.52c.4,.09,.8,.17,1.21,.25,.31,.06,.61,.12,.91,.19,1.52,.36,3.02,.85,4.47,1.44,.05,.02,.1,.03,.14,.03,.17,0,.32-.1,.38-.26,.08-.21-.02-.44-.23-.53,0,0,0,0,0,0-1.49-.61-3.02-1.1-4.59-1.48-.71-.14-1.41-.28-2.11-.44-.22-.04-.42,.1-.48,.31-.05,.22,.09,.44,.31,.49h0Zm-8.57,5.84c2.47,.07,4.89,.76,7.04,2,.05,.03,.12,.04,.18,.04,.22,0,.4-.18,.4-.41,0-.15-.09-.29-.22-.36-2.21-1.25-4.67-1.96-7.19-2.09h-.22c-.22,0-.4,.19-.39,.42,0,.22,.18,.4,.4,.4,0,0,.01,0,.02,0h0Zm-21.14,14.01c.38,.08,.74,.22,1.07,.42,.17,.08,.33,.17,.49,.24,.9,.41,1.74,.88,2.62,1.39l.14,.08c.06,.03,.13,.05,.2,.05,.14,0,.28-.08,.35-.2,.11-.19,.04-.44-.15-.55l-.14-.08c-.87-.52-1.77-.99-2.69-1.42-.15-.07-.3-.15-.44-.23-.42-.25-.88-.43-1.36-.51-.21-.04-.4,.1-.44,.31,0,.02,0,.03,0,.05-.02,.22,.13,.42,.35,.45h0Z" style="fill: #487ef4;"/>
      </g>
    </g>
  </g>
</svg>